REM DIRINDEX 1\2,1\3,1\4
REM DIRNAME folder01,folder02,folder03,folder04
TITLE ""
FILE "CD1-09.mp3" MP3
  TRACK 01 AUDIO
    TITLE "2:cjc031_0404"
    INDEX 01 00:00:00
  TRACK 02 AUDIO
    TITLE "3:cjc031_0405"
    INDEX 01 00:00:72
  TRACK 03 AUDIO
    TITLE "2:cjc031_0406"
    INDEX 01 00:02:38
  TRACK 04 AUDIO
    TITLE "3:cjc031_0407"
    INDEX 01 00:03:64
  TRACK 05 AUDIO
    TITLE "2:cjc031_0408"
    INDEX 01 00:05:36
  TRACK 06 AUDIO
    TITLE "3:cjc031_0409"
    INDEX 01 00:06:59
  TRACK 07 AUDIO
    TITLE "2:cjc031_0410"
    INDEX 01 00:08:24
  TRACK 08 AUDIO
    TITLE "3:cjc031_0411"
    INDEX 01 00:09:45
  TRACK 09 AUDIO
    TITLE "2:cjc031_0412"
    INDEX 01 00:10:74
  TRACK 10 AUDIO
    TITLE "3:cjc031_0413"
    INDEX 01 00:12:22
  TRACK 11 AUDIO
    TITLE "2:cjc031_0414"
    INDEX 01 00:13:63
  TRACK 12 AUDIO
    TITLE "3:cjc031_0415"
    INDEX 01 00:14:68
  TRACK 13 AUDIO
    TITLE "2:cjc031_0416"
    INDEX 01 00:16:20
  TRACK 14 AUDIO
    TITLE "3:cjc031_0417"
    INDEX 01 00:17:35
  TRACK 15 AUDIO
    TITLE "2:cjc031_0418"
    INDEX 01 00:18:72
  TRACK 16 AUDIO
    TITLE "3:cjc031_0419"
    INDEX 01 00:20:36
  TRACK 17 AUDIO
    TITLE "2:cjc031_0420"
    INDEX 01 00:22:09
  TRACK 18 AUDIO
    TITLE "3:cjc031_0421"
    INDEX 01 00:23:30
  TRACK 19 AUDIO
    TITLE "2:cjc031_0422"
    INDEX 01 00:24:61
  TRACK 20 AUDIO
    TITLE "3:cjc031_0423"
    INDEX 01 00:26:05
  TRACK 21 AUDIO
    TITLE "2:cjc031_0424"
    INDEX 01 00:27:18
  TRACK 22 AUDIO
    TITLE "3:cjc031_0425"
    INDEX 01 00:28:29
  TRACK 23 AUDIO
    TITLE "2:cjc031_0426"
    INDEX 01 00:29:66
  TRACK 24 AUDIO
    TITLE "3:cjc031_0427"
    INDEX 01 00:30:69
  TRACK 25 AUDIO
    TITLE "2:cjc031_0428"
    INDEX 01 00:32:17
  TRACK 26 AUDIO
    TITLE "3:cjc031_0429"
    INDEX 01 00:33:36
  TRACK 27 AUDIO
    TITLE "2:cjc031_0430"
    INDEX 01 00:35:10
  TRACK 28 AUDIO
    TITLE "3:cjc031_0431"
    INDEX 01 00:36:21
  TRACK 29 AUDIO
    TITLE "2:cjc031_0432"
    INDEX 01 00:37:36
  TRACK 30 AUDIO
    TITLE "3:cjc031_0433"
    INDEX 01 00:38:65
  TRACK 31 AUDIO
    TITLE "2:cjc031_0434"
    INDEX 01 00:40:24
  TRACK 32 AUDIO
    TITLE "3:cjc031_0435"
    INDEX 01 00:41:55
  TRACK 33 AUDIO
    TITLE "2:cjc031_0436"
    INDEX 01 00:43:23
  TRACK 34 AUDIO
    TITLE "3:cjc031_0437"
    INDEX 01 00:44:38
  TRACK 35 AUDIO
    TITLE "2:cjc031_0438"
    INDEX 01 00:46:07
  TRACK 36 AUDIO
    TITLE "3:cjc031_0439"
    INDEX 01 00:47:34
  TRACK 37 AUDIO
    TITLE "2:cjc031_0440"
    INDEX 01 00:48:63
  TRACK 38 AUDIO
    TITLE "3:cjc031_0441"
    INDEX 01 00:50:09
  TRACK 39 AUDIO
    TITLE "2:cjc031_0442"
    INDEX 01 00:51:38
  TRACK 40 AUDIO
    TITLE "3:cjc031_0443"
    INDEX 01 00:53:04
  TRACK 41 AUDIO
    TITLE "2:cjc031_0444"
    INDEX 01 00:54:50
  TRACK 42 AUDIO
    TITLE "3:cjc031_0445"
    INDEX 01 00:55:71
  TRACK 43 AUDIO
    TITLE "2:cjc031_0446"
    INDEX 01 00:57:35
  TRACK 44 AUDIO
    TITLE "3:cjc031_0447"
    INDEX 01 00:58:46
  TRACK 45 AUDIO
    TITLE "2:cjc031_0448"
    INDEX 01 01:00:33
  TRACK 46 AUDIO
    TITLE "3:cjc031_0449"
    INDEX 01 01:01:60
  TRACK 47 AUDIO
    TITLE "2:cjc031_0450"
    INDEX 01 01:03:24
  TRACK 48 AUDIO
    TITLE "3:cjc031_0451"
    INDEX 01 01:04:45
  TRACK 49 AUDIO
    TITLE "2:cjc031_0452"
    INDEX 01 01:06:04
  TRACK 50 AUDIO
    TITLE "3:cjc031_0453"
    INDEX 01 01:07:29
  TRACK 51 AUDIO
    TITLE "2:cjc031_0454"
    INDEX 01 01:08:74
  TRACK 52 AUDIO
    TITLE "3:cjc031_0455"
    INDEX 01 01:10:28
  TRACK 53 AUDIO
    TITLE "2:cjc031_0456"
    INDEX 01 01:11:54
  TRACK 54 AUDIO
    TITLE "3:cjc031_0457"
    INDEX 01 01:12:64
  TRACK 55 AUDIO
    TITLE "2:cjc031_0458"
    INDEX 01 01:14:23
  TRACK 56 AUDIO
    TITLE "3:cjc031_0459"
    INDEX 01 01:15:54
  TRACK 57 AUDIO
    TITLE "2:cjc031_0460"
    INDEX 01 01:17:12
  TRACK 58 AUDIO
    TITLE "3:cjc031_0461"
    INDEX 01 01:18:29
  TRACK 59 AUDIO
    TITLE "2:cjc031_0462"
    INDEX 01 01:20:04
  TRACK 60 AUDIO
    TITLE "3:cjc031_0463"
    INDEX 01 01:21:18
  TRACK 61 AUDIO
    TITLE "2:cjc031_0464"
    INDEX 01 01:22:54
  TRACK 62 AUDIO
    TITLE "3:cjc031_0465"
    INDEX 01 01:24:16
  TRACK 63 AUDIO
    TITLE "2:cjc031_0466"
    INDEX 01 01:25:49
  TRACK 64 AUDIO
    TITLE "3:cjc031_0467"
    INDEX 01 01:26:60
  TRACK 65 AUDIO
    TITLE "2:cjc031_0468"
    INDEX 01 01:28:06
  TRACK 66 AUDIO
    TITLE "3:cjc031_0469"
    INDEX 01 01:29:17
  TRACK 67 AUDIO
    TITLE "2:cjc031_0470"
    INDEX 01 01:30:44
  TRACK 68 AUDIO
    TITLE "3:cjc031_0471"
    INDEX 01 01:32:02
  TRACK 69 AUDIO
    TITLE "2:cjc031_0472"
    INDEX 01 01:33:27
  TRACK 70 AUDIO
    TITLE "3:cjc031_0473"
    INDEX 01 01:34:52
  TRACK 71 AUDIO
    TITLE "2:cjc031_0474"
    INDEX 01 01:36:25
  TRACK 72 AUDIO
    TITLE "3:cjc031_0475"
    INDEX 01 01:37:42
  TRACK 73 AUDIO
    TITLE "2:cjc031_0476"
    INDEX 01 01:39:19
  TRACK 74 AUDIO
    TITLE "3:cjc031_0477"
    INDEX 01 01:41:05
  TRACK 75 AUDIO
    TITLE "2:cjc031_0478"
    INDEX 01 01:43:15
  TRACK 76 AUDIO
    TITLE "3:cjc031_0479"
    INDEX 01 01:44:42
  TRACK 77 AUDIO
    TITLE "2:cjc031_0480"
    INDEX 01 01:46:02
  TRACK 78 AUDIO
    TITLE "3:cjc031_0481"
    INDEX 01 01:47:21
  TRACK 79 AUDIO
    TITLE "2:cjc031_0482"
    INDEX 01 01:48:56
  TRACK 80 AUDIO
    TITLE "3:cjc031_0483"
    INDEX 01 01:50:07
  TRACK 81 AUDIO
    TITLE "0:"
    INDEX 01 01:51:60
